SplineFontDB: 3.2
FontName: TheGuidingThread
FullName: The Guiding Thread
FamilyName: Guiding
Weight: Light
Copyright: Copyright (c) 2025, sea5kg
UComments: "2025-11-16: Created with FontForge (http://fontforge.org)"
Version: 001.000
ItalicAngle: 0
UnderlinePosition: -100
UnderlineWidth: 50
Ascent: 800
Descent: 200
InvalidEm: 0
LayerCount: 2
Layer: 0 0 "+BBcEMAQ0BD0EOAQ5 +BD8EOwQwBD0A" 1
Layer: 1 0 "+BB8ENQRABDUENAQ9BDgEOQAA +BD8EOwQwBD0A" 0
XUID: [1021 287 1418727460 5396438]
StyleMap: 0x0000
FSType: 0
OS2Version: 0
OS2_WeightWidthSlopeOnly: 0
OS2_UseTypoMetrics: 1
CreationTime: 1763275187
ModificationTime: 1763790365
OS2TypoAscent: 0
OS2TypoAOffset: 1
OS2TypoDescent: 0
OS2TypoDOffset: 1
OS2TypoLinegap: 90
OS2WinAscent: 0
OS2WinAOffset: 1
OS2WinDescent: 0
OS2WinDOffset: 1
HheadAscent: 0
HheadAOffset: 1
HheadDescent: 0
HheadDOffset: 1
MarkAttachClasses: 1
DEI: 91125
Encoding: iso8859-5
UnicodeInterp: none
NameList: AGL For New Fonts
DisplaySize: -48
AntiAlias: 1
FitToEm: 0
WinInfo: 0 34 14
BeginPrivate: 0
EndPrivate
BeginChars: 256 34

StartChar: G
Encoding: 71 71 0
Width: 832
Flags: HW
LayerCount: 2
Fore
SplineSet
399.65234375 730.349609375 m 1
 532.2421875 729.927734375 l 1
 528.451171875 714.7421875 l 1
 579.986328125 714.7421875 l 1
 577.712890625 695 l 1
 478.212890625 696.634765625 l 1
 485.03515625 631.333984375 l 1
 577.791015625 635.478515625 l 1
 576.1171875 589.025390625 l 1
 580.033203125 586.896484375 l 1
 580.033203125 572.638671875 l 1
 575.51953125 572.455078125 l 1
 503.5703125 591.88671875 l 1
 437.900390625 593.404296875 l 1
 372.244140625 579.11328125 l 1
 335.8671875 546.462890625 l 1
 201.205078125 543.771484375 l 1
 200.65234375 559.130859375 l 1
 198.37890625 622.28125 l 1
 182.462890625 629.875 l 1
 250.671875 676.193359375 l 1
 303.53515625 699.37109375 l 1
 299.74609375 634.0703125 l 1
 373.66015625 636.681640625 l 1
 380.478515625 720.623046875 l 1
 398.89453125 718.958984375 l 1
 399.65234375 730.349609375 l 1
113.486328125 535.794921875 m 1
 114.880859375 313.47265625 l 1
 54.251953125 317.26953125 l 1
 54.251953125 317.26953125 51.220703125 359.032226562 51.220703125 366.625 c 0
 51.220703125 374.217773438 60.314453125 432.384765625 60.314453125 432.384765625 c 1
 86.892578125 505.44140625 l 1
 102.119140625 535.03515625 l 1
 113.486328125 535.794921875 l 1
435.083984375 391.93359375 m 1
 745.099609375 388.896484375 l 1
 742.658203125 87.029296875 l 1
 662.919921875 82.986328125 l 1
 660.646484375 17.6875 l 1
 619.720703125 -1.294921875 l 1
 564.009765625 -11.654296875 l 1
 558.70703125 86.017578125 l 1
 476.1015625 85.2578125 l 1
 476.044921875 -19.697265625 l 1
 382.28125 -17.3671875 l 1
 380.96484375 84.72265625 l 1
 295.66796875 90.845703125 l 1
 288.23828125 5.99609375 l 1
 288.23828125 5.99609375 243.525390625 29.533203125 240.494140625 30.29296875 c 0
 237.462890625 31.052734375 186.6875 59.90625 186.6875 59.90625 c 1
 160.162109375 86.482421875 l 1
 193.5078125 90.27734375 l 1
 195.78125 164.69140625 l 1
 102.705078125 167.796875 l 1
 82.2421875 202.724609375 l 1
 73.904296875 242.20703125 l 1
 196.9375 240.689453125 l 1
 201.3046875 318.923828125 l 1
 246.00390625 317.986328125 l 1
 247.51953125 299.76171875 l 1
 247.51953125 299.76171875 271.76953125 221.5546875 272.52734375 217.7578125 c 0
 273.28515625 213.9609375 306.1484375 164.884765625 306.1484375 164.884765625 c 1
 389.439453125 120.62890625 l 1
 389.439453125 120.62890625 473.703125 111.048828125 478.25 111.048828125 c 0
 482.796875 111.048828125 543.716796875 113.392578125 543.716796875 113.392578125 c 1
 580.8515625 129.337890625 l 1
 581.611328125 158.193359375 l 1
 653.263671875 164.12890625 l 1
 657.908203125 315.095703125 l 1
 571.763671875 317.171875 l 1
 570.248046875 267.083984375 l 1
 475.6875 267.107421875 l 1
 471.140625 323.2734375 l 1
 427.943359375 320.99609375 l 1
 435.083984375 391.93359375 l 1
515.84375 -95.615234375 m 1
 735.24609375 -52.046875 l 1
 735.776367188 -93.0703125 l 1
 721.774414062 -156.059570312 l 1
 561.3828125 -171.647460938 l 1
 697.677734375 -131.404296875 l 1
 702.439453125 -98.7548828125 l 1
 517.201171875 -139.69140625 l 1
 431.79296875 -141.3984375 l 1
 378.334960938 -151.874023438 l 1
 496.555664062 -172.62109375 l 1
 347.388671875 -191.194335938 l 1
 204.99609375 -169.24609375 l 1
 331.244140625 -150.750976562 l 1
 311.439453125 -117.75 l 1
 201.072265625 -53.0263671875 l 1
 350.732421875 -91.337890625 l 1
 515.84375 -95.615234375 l 1
EndSplineSet
Validated: 524289
EndChar

StartChar: u
Encoding: 117 117 1
Width: 576
Flags: HW
LayerCount: 2
Fore
SplineSet
52.7529296875 459.213867188 m 1
 52.7529296875 506.951171875 l 1
 189.399414062 502.000976562 l 1
 193.276367188 245.059570312 l 1
 158.2734375 244.319335938 l 1
 156.206054688 314.6796875 l 1
 81.134765625 315.967773438 l 1
 63.4140625 315.124023438 l 1
 63.619140625 244.97265625 l 1
 80.013671875 246.23828125 l 1
 80.591796875 175.928710938 l 1
 194.447265625 174.6171875 l 1
 207.678710938 148.498046875 l 1
 222.024414062 128.666992188 l 1
 259.7734375 124.223632812 l 1
 259.7734375 124.223632812 287.229492188 123.416015625 292.29296875 124.260742188 c 0
 297.356445312 125.104492188 336.938476562 147.25390625 336.938476562 147.25390625 c 1
 361.923828125 175.733398438 l 1
 373.18359375 176.017578125 l 1
 372.076171875 242.81640625 l 1
 370.09765625 504.926757812 l 1
 383.916992188 504.390625 l 1
 382.555664062 381.959960938 l 1
 455.883789062 382.840820312 l 1
 456.35546875 450.3984375 l 1
 497.750976562 450.057617188 l 1
 497.313476562 494.342773438 l 1
 434.997070312 494.836914062 l 1
 435.418945312 504.541992188 l 1
 513.987304688 503.711914062 l 1
 514.095703125 315.912109375 l 1
 511.268554688 206.075195312 l 1
 496.977539062 206.075195312 l 1
 496.831054688 314.322265625 l 1
 384.067382812 312.345703125 l 1
 382.43359375 175.516601562 l 1
 512.7421875 174.250976562 l 1
 512.442382812 25.177734375 l 1
 396.620117188 27.287109375 l 1
 395.354492188 49.2275390625 l 1
 404.21484375 50.494140625 l 1
 404.637695312 35.3037109375 l 1
 498.192382812 36.4541015625 l 1
 498.744140625 107.329101562 l 1
 377.76953125 108.836914062 l 1
 361.572265625 68.126953125 l 1
 316.825195312 36.505859375 l 1
 254.724609375 12.8134765625 l 1
 174.938476562 13.84765625 l 1
 129.016601562 32.8349609375 l 1
 133.235351562 36.6318359375 l 1
 180.107421875 19.9150390625 l 1
 254.428710938 18.6796875 l 1
 317.733398438 45.6669921875 l 1
 354.869140625 75.3271484375 l 1
 368.85546875 108.400390625 l 1
 69.6826171875 108.75 l 1
 50.7216796875 164.459960938 l 1
 54.705078125 321.79296875 l 1
 53.94921875 382.826171875 l 1
 53.94921875 382.826171875 154.82421875 379.8125 154.82421875 382.765625 c 0
 154.82421875 385.719726562 158.072265625 455.877929688 158.072265625 455.877929688 c 1
 52.7529296875 459.213867188 l 1
EndSplineSet
Validated: 33
EndChar

StartChar: i
Encoding: 105 105 2
Width: 368
Flags: HW
LayerCount: 2
Fore
SplineSet
246.537109375 113.2890625 m 1
 238.041992188 112.376953125 l 1
 116.887695312 112.610351562 l 1
 115.618164062 441.631835938 l 1
 142.622070312 440.788085938 l 1
 146.841796875 373.27734375 l 1
 210.1328125 369.05859375 l 1
 212.125976562 489.821289062 l 1
 248.412109375 486.4453125 l 1
 247.140625 307.322265625 l 1
 144.9140625 310.189453125 l 1
 144.9140625 310.189453125 143.844726562 184.07421875 143.844726562 180.698242188 c 0
 143.844726562 177.323242188 247.764648438 175.405273438 247.764648438 175.405273438 c 1
 246.537109375 113.2890625 l 1
143.462890625 637.424804688 m 1
 143.500976562 687.923828125 l 1
 157.002929688 694.252929688 l 1
 190.924804688 694.252929688 l 1
 219.21484375 692.790039062 l 1
 233.20703125 682.079101562 l 1
 249.662109375 663.513671875 l 1
 256.413085938 650.43359375 l 1
 255.569335938 637.775390625 l 1
 255.969726562 604.428710938 l 1
 238.248046875 581.643554688 l 1
 201.065429688 560.934570312 l 1
 155.854492188 567.858398438 l 1
 155.854492188 567.858398438 131.578125 577.498046875 130.734375 579.185546875 c 0
 129.890625 580.873046875 118.498046875 596.907226562 118.498046875 596.907226562 c 1
 118.498046875 596.907226562 123.809570312 598.594726562 124.232421875 596.907226562 c 0
 124.654296875 595.219726562 134.780273438 582.983398438 134.780273438 582.983398438 c 1
 150.392578125 575.810546875 l 1
 170.645507812 568.21484375 l 1
 193.430664062 566.52734375 l 1
 208.006835938 567.37109375 l 1
 226.149414062 578.763671875 l 1
 242.60546875 592.6875 l 1
 250.622070312 609.565429688 l 1
 250.622070312 609.565429688 255.96875 636.991210938 251.043945312 637.413085938 c 0
 246.119140625 637.834960938 143.462890625 637.424804688 143.462890625 637.424804688 c 1
 143.462890625 637.424804688 l 1
116.735351562 25.1025390625 m 1
 116.735351562 34.3515625 l 1
 244.555664062 33.408203125 l 1
 244.555664062 23.5625 l 1
 116.735351562 25.1025390625 l 1
EndSplineSet
Validated: 37
EndChar

StartChar: d
Encoding: 100 100 3
Width: 605
Flags: HW
LayerCount: 2
Fore
SplineSet
524.158203125 700.05859375 m 1
 524.158203125 700.05859375 523.609375 580.474609375 523.1875 578.365234375 c 0
 522.765625 576.255859375 489.380859375 578.564453125 489.380859375 578.564453125 c 1
 486.18359375 698.79296875 l 1
 524.158203125 700.05859375 l 1
393.287109375 699.265625 m 1
 419.025390625 698.421875 l 1
 417.85546875 440.34765625 l 1
 487.52734375 437.81640625 l 1
 487.845703125 369.44921875 l 1
 522.0234375 366.91796875 l 1
 522.578125 301.83203125 l 1
 488.357421875 300.953125 l 1
 488.357421875 300.953125 488.16796875 233.078125 488.58984375 231.390625 c 0
 489.01171875 229.703125 392.96875 230.986328125 392.96875 230.986328125 c 1
 393.470703125 299.26953125 l 1
 418.58984375 299.26953125 l 1
 418.72265625 368.802734375 l 1
 381.396484375 367.59375 l 1
 374.64453125 377.298828125 l 1
 347.640625 389.11328125 l 1
 349.986328125 488.517578125 l 1
 396.669921875 455.36328125 l 1
 397.091796875 482.3671875 l 1
 392.451171875 483.2109375 l 1
 393.287109375 699.265625 l 1
265.2890625 502.873046875 m 1
 258.716796875 385.5703125 l 1
 143.3828125 389.748046875 l 1
 133.767578125 293.041015625 l 1
 74.39453125 292.857421875 l 1
 76.08203125 308.45703125 l 1
 87.22265625 354.8359375 l 1
 106.01953125 400.90625 l 1
 149.828125 454.58203125 l 1
 145.51171875 411.166015625 l 1
 202.98828125 413.029296875 l 1
 208.974609375 490.05859375 l 1
 231.603515625 498.23046875 l 1
 265.2890625 502.873046875 l 1
139.533203125 229.810546875 m 1
 206.19921875 228.966796875 l 1
 206.19921875 228.966796875 205.77734375 220.52734375 205.77734375 219.26171875 c 0
 205.77734375 217.99609375 210.83984375 197.3203125 210.83984375 197.3203125 c 1
 214.638671875 177.912109375 l 1
 220.123046875 162.30078125 l 1
 208.30859375 163.14453125 l 1
 210.146484375 21.36328125 l 1
 168.1328125 21.78515625 l 1
 136.421875 47.974609375 l 1
 105.4375 88.341796875 l 1
 140.126953125 90.107421875 l 1
 138.40625 176.01953125 l 1
 139.533203125 229.810546875 l 1
391.638671875 160.62109375 m 1
 521.970703125 159.29296875 l 1
 521.576171875 90.705078125 l 1
 281.658203125 90.615234375 l 1
 279.91796875 103.765625 l 2
 279.91796875 103.765625 300.646484375 103.08984375 302.333984375 103.08984375 c 0
 304.021484375 103.08984375 326.384765625 107.732421875 326.384765625 107.732421875 c 1
 360.625 120.587890625 l 1
 382.14453125 139.576171875 l 1
 392.904296875 149.650390625 l 1
 391.638671875 160.62109375 l 1
523.9296875 21.55078125 m 0
 525.439453125 21.5263671875 525.04296875 8.85546875 525.04296875 8.85546875 c 1
 488.755859375 9.27734375 l 1
 486.501953125 21.513671875 l 1
 486.501953125 21.513671875 522.08984375 20.669921875 523.77734375 21.513671875 c 0
 523.830078125 21.5400390625 523.880859375 21.5517578125 523.9296875 21.55078125 c 0
EndSplineSet
Validated: 33
EndChar

StartChar: n
Encoding: 110 110 4
Width: 680
Flags: HW
LayerCount: 2
Fore
SplineSet
357.765625 651.779296875 m 1
 401.921875 651.779296875 l 1
 402.92578125 517.9609375 l 1
 320.00390625 518.15625 l 1
 319.782226562 542.076171875 l 1
 280.470703125 543.173828125 l 1
 280.50390625 566.423828125 l 1
 320.76953125 601.654296875 l 1
 330.31640625 635.0703125 l 1
 357.765625 651.779296875 l 1
207.021484375 605.66796875 m 1
 216.5703125 571.05859375 l 1
 227.310546875 559.125 l 1
 228.4609375 326.44921875 l 1
 159.53515625 323.341796875 l 1
 159.583984375 513.529296875 l 1
 83.205078125 513.529296875 l 1
 83.7734375 605.310546875 l 1
 207.021484375 605.66796875 l 1
79.6953125 230.7578125 m 1
 155.203125 230.7578125 l 1
 156.396484375 141.25 l 1
 232.77734375 140.056640625 l 1
 231.962890625 50.09375 l 1
 154.388671875 52.48046875 l 1
 157.96875 28.611328125 l 1
 81.58984375 28.611328125 l 1
 79.6953125 230.7578125 l 1
434.630859375 48.498046875 m 1
 597.359375 45.3203125 l 1
 597.359375 25.03125 l 1
 435.82421875 22.2421875 l 1
 434.630859375 48.498046875 l 1
438.078125 143.21484375 m 1
 434.291992188 231.538085938 l 1
 480.498046875 227.958007812 l 1
 481.69140625 422.486328125 l 1
 438.727539062 429.647460938 l 1
 417.24609375 485.73828125 l 1
 402.924804688 517.9609375 l 1
 481.473632812 512.708984375 l 1
 481.473632812 609.376953125 l 1
 535.178710938 596.249023438 l 1
 561.43359375 566.4140625 l 1
 570.981445312 535.384765625 l 1
 564.448242188 230.452148438 l 1
 591.897460938 230.452148438 l 1
 590.704101562 139.0390625 l 1
 438.078125 143.21484375 l 1
EndSplineSet
Validated: 5
EndChar

StartChar: o
Encoding: 111 111 5
Width: 546
Flags: HWO
LayerCount: 2
Fore
SplineSet
245.724609375 525.815429688 m 1
 262.609375 525.815429688 l 1
 297.053710938 523.723632812 l 1
 313.264648438 518.147460938 l 1
 317.993164062 487.4765625 l 1
 374.881835938 487.188476562 l 1
 389.739257812 480.916015625 l 1
 408.651367188 461.3984375 l 1
 432.291015625 431.423828125 l 1
 444.447265625 413.299804688 l 1
 381.635742188 413.99609375 l 1
 378.390625 257.4921875 l 1
 361.505859375 256.098632812 l 1
 361.505859375 266.5546875 l 1
 362.856445312 295.134765625 l 1
 351.375 329.98828125 l 1
 351.375 329.98828125 335.165039062 378.084960938 333.813476562 385.055664062 c 0
 332.462890625 392.02734375 313.551757812 414.333984375 313.551757812 414.333984375 c 1
 290.588867188 419.911132812 l 1
 258.845703125 415.727539062 l 1
 227.100585938 421.3046875 l 1
 178.536132812 419.280273438 l 1
 179.2109375 377.456054688 l 1
 167.729492188 343.995117188 l 1
 162.202148438 295.849609375 l 1
 162.202148438 295.849609375 161.309570312 218.87890625 159.283203125 214.696289062 c 0
 157.2578125 210.513671875 168.049804688 168.663085938 168.049804688 168.663085938 c 1
 168.049804688 168.663085938 196.038085938 134.137695312 198.064453125 131.349609375 c 0
 200.090820312 128.561523438 223.728515625 109.04296875 223.728515625 109.04296875 c 1
 248.043945312 106.951171875 l 1
 247.341796875 -3.0986328125 l 1
 231.80859375 -1.703125 l 1
 181.154296875 12.9345703125 l 1
 143.71484375 33.8505859375 l 1
 177.084960938 32.0078125 l 1
 176.408203125 107.98828125 l 1
 71.501953125 107.639648438 l 1
 60.6953125 132.038085938 l 1
 50.4912109375 161.89453125 l 1
 45.0888671875 183.50390625 l 1
 114.876953125 183.478515625 l 1
 116.90234375 259.458984375 l 1
 114.8671875 336.744140625 l 1
 43.544921875 334.653320312 l 1
 51.6494140625 359.052734375 l 1
 55.0263671875 385.540039062 l 1
 69.8857421875 411.333007812 l 1
 114.390625 406.778320312 l 1
 116.41796875 466.7265625 l 1
 125.197265625 476.486328125 l 1
 139.380859375 489.033203125 l 1
 246.399414062 488.172851562 l 1
 245.724609375 525.815429688 l 1
483.314453125 252.979492188 m 1
 481.288085938 225.096679688 l 1
 472.5078125 200.69921875 l 1
 404.967773438 200.69921875 l 1
 401.40234375 56.5146484375 l 1
 388.5703125 43.9658203125 l 1
 360.87890625 24.447265625 l 1
 331.8359375 18.1748046875 l 1
 334.145507812 152.771484375 l 1
 335.379882812 149.091796875 l 1
 348.213867188 177.671875 l 1
 356.319335938 220.193359375 l 1
 483.314453125 252.979492188 l 1
EndSplineSet
EndChar

StartChar: T
Encoding: 84 84 6
Width: 676
Flags: HW
LayerCount: 2
Fore
SplineSet
258.12109375 65.1875 m 1
 282.836914062 64.12890625 l 1
 280.490234375 222.14453125 l 1
 263.612304688 223.5859375 l 1
 261.52734375 634.935546875 l 1
 79.2734375 641.2109375 l 1
 79.2734375 717.587890625 l 1
 119.780273438 711.82421875 l 1
 124.842773438 753.615234375 l 1
 206.8125 750.733398438 l 1
 208.5 720.470703125 l 1
 357.432617188 723.352539062 l 1
 359.12109375 752.173828125 l 1
 433.381835938 752.173828125 l 1
 428.319335938 719.029296875 l 1
 591.831054688 721.055664062 l 1
 596.89453125 636.03125 l 1
 287.67578125 635.348632812 l 1
 283.909179688 305.979492188 l 1
 359.858398438 307.419921875 l 1
 361.545898438 219.514648438 l 1
 410.491210938 216.631835938 l 1
 403.740234375 138.813476562 l 1
 361.545898438 135.931640625 l 1
 358.170898438 60.9951171875 l 1
 403.740234375 65.318359375 l 1
 408.803710938 35.0556640625 l 1
 259.80859375 34.9248046875 l 1
 258.12109375 65.1875 l 1
409.821289062 -30.7236328125 m 1
 369.28515625 -61.0751953125 l 1
 411.697265625 -81.205078125 l 1
 382.461914062 -110.546875 l 1
 405.3828125 -130.734375 l 1
 469.9140625 -151.740234375 l 1
 494.06640625 -150.82421875 l 1
 493.614257812 -129.107421875 l 1
 526.116210938 -28.380859375 l 1
 528.834960938 -74.478515625 l 1
 510.723632812 -138.772460938 l 1
 526.840820312 -157.819335938 l 1
 153.416015625 -163.76953125 l 1
 312.901367188 -139 l 1
 218.641601562 -122.6015625 l 1
 295.971679688 -86.1884765625 l 1
 243.51171875 -81.236328125 l 1
 282.161132812 -55.697265625 l 1
 251.041992188 -49.0009765625 l 1
 251.428710938 -30.2431640625 l 1
 409.821289062 -30.7236328125 l 1
EndSplineSet
Validated: 524289
EndChar

StartChar: h
Encoding: 104 104 7
Width: 540
Flags: HW
LayerCount: 2
Fore
SplineSet
193.732421875 712.8203125 m 1
 190.35546875 515.3515625 l 1
 99.216796875 517.0390625 l 1
 104.279296875 451.216796875 l 1
 218.80078125 452.54296875 l 1
 217.11328125 476.169921875 l 1
 287.998046875 503.17578125 l 1
 286.310546875 405.66796875 l 1
 250.8671875 395.541015625 l 1
 223.86328125 376.974609375 l 1
 73.703125 382.0390625 l 1
 74.95703125 589.310546875 l 1
 153.224609375 591.97265625 l 1
 156.6015625 711.1328125 l 1
 193.732421875 712.8203125 l 1
345.408203125 516.765625 m 1
 379.1640625 506.638671875 l 1
 411.23046875 488.07421875 l 1
 412.919921875 380.056640625 l 1
 460.17578125 378.369140625 l 1
 461.7734375 104.388671875 l 1
 350.380859375 101.01171875 l 1
 347.005859375 176.9609375 l 1
 415.65234375 177.818359375 l 1
 408.90234375 311.15234375 l 1
 348.142578125 314.52734375 l 1
 345.408203125 516.765625 l 1
197.314453125 177.330078125 m 1
 195.626953125 101.380859375 l 1
 76.70703125 106.3515625 l 1
 68.23046875 173.955078125 l 1
 197.314453125 177.330078125 l 1
467.376953125 48.796875 m 1
 465.689453125 18.416015625 l 1
 349.232421875 16.728515625 l 1
 349.232421875 45.419921875 l 1
 467.376953125 48.796875 l 1
177.916015625 45.56640625 m 0
 181.977539062 45.54296875 185.037109375 45.4375 186.724609375 45.2265625 c 0
 200.2265625 43.5390625 193.474609375 26.662109375 193.474609375 26.662109375 c 1
 80.39453125 23.287109375 l 1
 71.95703125 41.8515625 l 1
 71.95703125 41.8515625 149.487304688 45.7275390625 177.916015625 45.56640625 c 0
EndSplineSet
Validated: 33
EndChar

StartChar: e
Encoding: 101 101 8
Width: 572
Flags: HW
LayerCount: 2
Fore
SplineSet
306.52734375 524.458984375 m 1
 363.576171875 502.115234375 l 1
 400.228515625 481.140625 l 1
 423.013671875 464.26171875 l 1
 370.69140625 461.73046875 l 1
 372.400390625 393.85546875 l 1
 452.6953125 389.16796875 l 1
 467.041015625 355.412109375 l 1
 470.41796875 294.654296875 l 1
 465.353515625 246.552734375 l 1
 440.880859375 239.80078125 l 1
 427.37890625 247.396484375 l 1
 202.8984375 249.32421875 l 1
 202.8984375 262.826171875 l 1
 431.421875 262.771484375 l 1
 431.421875 326.0625 l 1
 363.994140625 326.0625 l 1
 360.619140625 353.06640625 l 1
 352.572265625 381.234375 l 1
 333.162109375 408.23828125 l 1
 303.921875 432.421875 l 1
 306.52734375 524.458984375 l 1
118.8203125 440.8828125 m 1
 121.3515625 395.3125 l 1
 218.0625 390.05078125 l 1
 206.248046875 376.548828125 l 1
 192.982421875 348.25390625 l 1
 187.07421875 328 l 1
 123.2421875 327.15625 l 1
 127.412109375 261.5546875 l 1
 70.171875 265.0234375 l 1
 78.64453125 304.078125 l 1
 90.458984375 378.33984375 l 1
 118.8203125 440.8828125 l 1
79.98828125 197.150390625 m 1
 204.8828125 193.775390625 l 1
 208.259765625 180.2734375 l 1
 243.701171875 144.830078125 l 1
 306.1484375 129.640625 l 1
 377.03515625 146.517578125 l 1
 412.478515625 166.771484375 l 1
 432.732421875 109.38671875 l 1
 451.296875 72.255859375 l 1
 425.98046875 77.3203125 l 1
 424.29296875 126.265625 l 1
 315.513671875 122.888671875 l 1
 320.576171875 33.4375 l 1
 227.75 35.125 l 1
 185.5546875 62.12890625 l 1
 246.478515625 51.1875 l 1
 248.166015625 122.072265625 l 1
 126.6484375 128.82421875 l 1
 113.14453125 120.384765625 l 1
 92.892578125 160.890625 l 1
 79.98828125 197.150390625 l 1
EndSplineSet
Validated: 1
EndChar

StartChar: r
Encoding: 114 114 9
Width: 434
Flags: HW
LayerCount: 2
Fore
SplineSet
288.498046875 534.716796875 m 1
 331.537109375 534.716796875 l 1
 326.951171875 463.27734375 l 1
 357.330078125 464.12109375 l 1
 343.828125 399.142578125 l 1
 324.41796875 413.48828125 l 1
 294.8828125 421.927734375 l 1
 261.8515625 405.90625 l 1
 259.806640625 522.90234375 l 1
 288.498046875 534.716796875 l 1
134.580078125 465.5859375 m 1
 132.966796875 391.19140625 l 1
 240.158203125 393.7734375 l 1
 240.158203125 393.7734375 224.96875 374.364257812 222.4375 370.98828125 c 0
 219.90625 367.612304688 205.560546875 347.359375 205.560546875 347.359375 c 1
 198.80859375 323.73046875 l 1
 137.205078125 327.951171875 l 1
 132.986328125 254.533203125 l 1
 71.171875 256.39453125 l 1
 71.58203125 464.77734375 l 1
 134.580078125 465.5859375 l 1
66.91015625 118.64453125 m 1
 66.91015625 118.64453125 187.165039062 116.11328125 193.916015625 116.11328125 c 0
 200.666992188 116.11328125 195.021484375 45.52734375 195.021484375 45.52734375 c 1
 135.94921875 48.05859375 l 1
 135.94921875 31.181640625 l 1
 70.28125 33.712890625 l 1
 66.91015625 118.64453125 l 1
EndSplineSet
Validated: 33
EndChar

StartChar: a
Encoding: 97 97 10
Width: 530
Flags: HW
LayerCount: 2
Fore
SplineSet
289.982421875 527.4296875 m 1
 323.953125 527.4296875 l 1
 357.306640625 508.556640625 l 1
 369.837890625 496.025390625 l 1
 297.220703125 495.923828125 l 1
 295.255859375 407.806640625 l 1
 283.91796875 419.740234375 l 1
 262.435546875 426.900390625 l 1
 232.00390625 428.09375 l 1
 234.212890625 466.119140625 l 1
 234.212890625 495.359375 l 1
 234.212890625 495.359375 125.611328125 487.68359375 123.224609375 487.68359375 c 0
 120.837890625 487.68359375 132.17578125 499.021484375 132.17578125 499.021484375 c 1
 164.341796875 510.466796875 l 1
 210.064453125 526.83203125 l 1
 289.982421875 527.4296875 l 1
98.6015625 483.05078125 m 1
 108.74609375 467.537109375 l 1
 93.828125 455.603515625 l 1
 125.68359375 396.013671875 l 1
 125.68359375 396.013671875 116.731445312 388.254882812 112.5546875 387.658203125 c 0
 108.377929688 387.061523438 73.76953125 463.44140625 73.76953125 463.44140625 c 1
 98.6015625 483.05078125 l 1
393.65234375 469.76953125 m 1
 414.84375 444.14453125 l 1
 427.666015625 405.697265625 l 1
 391.86328125 405.099609375 l 1
 393.65234375 469.76953125 l 1
294.083984375 343.875 m 1
 338.77734375 343.33203125 l 1
 442.7265625 341.4453125 l 1
 440.935546875 272.82421875 l 1
 422.4375 272.82421875 l 1
 423.03515625 199.427734375 l 1
 440.935546875 200.025390625 l 1
 435.92578125 129.48828125 l 1
 361.05078125 128.623046875 l 1
 364.578125 267.939453125 l 1
 295.197265625 270.427734375 l 1
 259.39453125 265.654296875 l 1
 259.39453125 265.654296875 234.627929688 255.360351562 231.64453125 252.376953125 c 0
 228.661132812 249.393554688 192.1953125 230.556640625 192.1953125 230.556640625 c 1
 166.537109375 200.125 l 1
 159.8828125 149.759765625 l 1
 163.25 59.330078125 l 1
 229.890625 58.369140625 l 1
 229.890625 29.7265625 l 1
 188.396484375 29.7265625 l 1
 137.67578125 30.919921875 l 1
 102.103515625 58.830078125 l 1
 85.9921875 83.294921875 l 1
 65.107421875 115.517578125 l 1
 60.333984375 135.806640625 l 1
 94.34765625 129.2421875 l 1
 102.90234375 271.98046875 l 1
 227.16015625 276.158203125 l 1
 234.578125 333.5625 l 1
 254.8671875 335.3515625 l 1
 294.083984375 343.875 l 1
330.962890625 106.146484375 m 0
 332.15625 105.84765625 334.017578125 98.341796875 334.017578125 98.341796875 c 1
 308.58984375 78.6171875 l 1
 295.9375 38.01953125 l 1
 281.275390625 49.966796875 l 1
 295.3125 84.9453125 l 1
 295.3125 84.9453125 329.76953125 106.4453125 330.962890625 106.146484375 c 0
335.83984375 68.984375 m 1
 435.103515625 67.814453125 l 1
 435.701171875 44.54296875 l 1
 339.5 44.54296875 l 1
 335.83984375 68.984375 l 1
EndSplineSet
Validated: 33
EndChar

StartChar: g
Encoding: 103 103 11
Width: 652
Flags: HW
LayerCount: 2
Fore
SplineSet
86.990234375 -99.376953125 m 1
 379.364257812 -94.9580078125 l 1
 390.10546875 -88.9912109375 l 1
 418.748046875 -78.25 l 1
 435.456054688 -32.900390625 l 1
 431.875976562 -6.64453125 l 1
 390.10546875 6.4833984375 l 1
 393.685546875 111.504882812 l 1
 393.685546875 111.504882812 106.440429688 112.197265625 102.860351562 107.423828125 c 0
 99.279296875 102.650390625 105.247070312 140.83984375 105.247070312 140.83984375 c 1
 113.600585938 187.383789062 l 1
 159.802734375 228.838867188 l 1
 138.321289062 240.7734375 l 1
 108.485351562 277.76953125 l 1
 97.744140625 306.412109375 l 1
 96.55078125 394.892578125 l 1
 98.9375 416.374023438 l 1
 106.098632812 440.2421875 l 1
 126.38671875 470.078125 l 1
 174.124023438 470.078125 l 1
 176.510742188 509.4609375 l 1
 203.959960938 520.202148438 l 1
 234.989257812 535.716796875 l 1
 276.758789062 536.91015625 l 1
 319.72265625 538.103515625 l 1
 318.529296875 470.078125 l 1
 246.490234375 469.46484375 l 1
 244.102539062 418.147460938 l 1
 234.555664062 416.954101562 l 1
 232.168945312 401.439453125 l 1
 170.276367188 402.6328125 l 1
 175.616210938 189.428710938 l 1
 229.321289062 188.235351562 l 1
 215 170.333984375 l 1
 218.580078125 138.111328125 l 1
 243.641601562 120.209960938 l 1
 409.044921875 116.629882812 l 1
 483.038085938 104.6953125 l 1
 526.000976562 85.6005859375 l 1
 562.998046875 45.0244140625 l 1
 461.830078125 38.837890625 l 1
 469.614257812 -97.00390625 l 1
 535.854492188 -98.197265625 l 1
 504.825195312 -136.38671875 l 1
 438.915039062 -169.380859375 l 1
 366.138671875 -184.939453125 l 1
 321.981445312 -182.552734375 l 1
 318.401367188 -164.651367188 l 1
 174.110351562 -169.7890625 l 1
 138.307617188 -155.467773438 l 1
 98.9248046875 -124.438476562 l 1
 86.990234375 -99.376953125 l 1
392.494140625 397.318359375 m 1
 390.107421875 521.435546875 l 1
 462.907226562 520.2421875 l 1
 460.520507812 467.731445312 l 1
 559.245117188 469.779296875 l 1
 562.825195312 423.235351562 l 1
 478.500976562 420.848632812 l 1
 496.40234375 398.173828125 l 1
 392.494140625 397.318359375 l 1
378.159179688 196.985351562 m 1
 374.579101562 303.200195312 l 1
 494.279296875 313.572265625 l 1
 478.764648438 265.834960938 l 1
 450.109375 230.955078125 l 1
 378.159179688 196.985351562 l 1
88.728515625 -20.564453125 m 1
 123.450195312 27.7060546875 l 1
 221.311523438 18.1591796875 l 1
 193.862304688 -20.0302734375 l 1
 88.728515625 -20.564453125 l 1
EndSplineSet
Validated: 33
EndChar

StartChar: I
Encoding: 73 73 12
Width: 594
Flags: HW
LayerCount: 2
Fore
SplineSet
188.891601562 19.9765625 m 1
 187.434570312 670.083984375 l 1
 442.405273438 670.083984375 l 1
 444.471679688 602.823242188 l 1
 312.576171875 599.481445312 l 1
 309.897460938 170.913085938 l 1
 442.16015625 172.106445312 l 1
 442.16015625 99.306640625 l 1
 316.173828125 102.346679688 l 1
 309.973632812 17.58984375 l 1
 188.891601562 19.9765625 l 1
320.731445312 -24.904296875 m 1
 348.381835938 -75.7568359375 l 1
 440.919921875 -76.083984375 l 1
 441.76171875 -125.03515625 l 1
 394.584960938 -102.282226562 l 1
 320.321289062 -104.7265625 l 1
 355.7734375 -126.705078125 l 1
 404.090820312 -178.288085938 l 1
 467.110351562 -168.641601562 l 1
 500.397460938 -109.911132812 l 1
 500.337890625 -184.822265625 l 1
 399.24609375 -192.33203125 l 1
 340.517578125 -144.974609375 l 1
 276.434570312 -117.481445312 l 1
 140.701171875 -151.733398438 l 1
 73.7041015625 -121.854492188 l 1
 80.7470703125 -84.255859375 l 1
 117.931640625 -68.998046875 l 1
 88.15234375 -91.6796875 l 1
 84.69921875 -118.3046875 l 1
 144.612304688 -137.478515625 l 1
 192.689453125 -126.192382812 l 1
 232.465820312 -102.845703125 l 1
 201.625 -90.18359375 l 1
 201.625 -90.18359375 188.3125 -60.7294921875 187.21484375 -59.21484375 c 0
 184.822265625 -55.9130859375 189.288085938 -24.4228515625 189.288085938 -24.4228515625 c 1
 320.731445312 -24.904296875 l 1
EndSplineSet
Validated: 524321
EndChar

StartChar: l
Encoding: 108 108 13
Width: 316
Flags: HW
LayerCount: 2
Fore
SplineSet
78.1875 688.341796875 m 1
 119.958984375 688.341796875 l 1
 119.958984375 594.060546875 l 1
 196.337890625 595.25390625 l 1
 197.53125 540.35546875 l 1
 78.1875 541.548828125 l 1
 78.1875 688.341796875 l 1
135.541015625 486.31640625 m 1
 194.01953125 485.123046875 l 1
 189.162109375 216.744140625 l 1
 137.607421875 213.744140625 l 1
 138.421875 350.1640625 l 1
 79.9453125 347.77734375 l 1
 78.751953125 422.96484375 l 1
 133.154296875 417.095703125 l 1
 135.541015625 486.31640625 l 1
79.173828125 212.63671875 m 1
 111.396484375 210.25 l 1
 113.783203125 82.552734375 l 1
 79.380859375 125.876953125 l 1
 76.994140625 172.421875 l 1
 79.173828125 212.63671875 l 1
166.185546875 168.751953125 m 1
 193.634765625 168.751953125 l 1
 193.634765625 158.01171875 l 1
 218.697265625 149.658203125 l 1
 231.82421875 149.658203125 l 1
 249.724609375 66.1171875 l 1
 216.30859375 54.18359375 l 1
 182.892578125 56.5703125 l 1
 166.185546875 56.5703125 l 1
 166.185546875 168.751953125 l 1
EndSplineSet
Validated: 524289
EndChar

StartChar: b
Encoding: 98 98 14
Width: 536
Flags: HW
LayerCount: 2
Fore
SplineSet
118.931640625 636.9140625 m 1
 118.369140625 596.7890625 l 1
 187.66015625 595.9453125 l 1
 187.66015625 595.9453125 191.872070312 636.451171875 186.80859375 635.607421875 c 0
 181.745117188 634.763671875 118.931640625 636.9140625 118.931640625 636.9140625 c 1
118.931640625 636.9140625 m 1
 118.369140625 596.7890625 l 1
 115.26953125 375.466796875 l 1
 71.388671875 374.623046875 l 1
 68.88671875 636.31640625 l 1
 118.931640625 636.9140625 l 1
252.365234375 454.24609375 m 1
 250.77734375 374.103515625 l 1
 214.59765625 360.439453125 l 1
 182.322265625 327.6640625 l 1
 183.166015625 423.021484375 l 1
 211.859375 433.1484375 l 1
 252.365234375 454.24609375 l 1
386.4921875 448.427734375 m 1
 415.18359375 427.33203125 l 1
 454.78125 384.30859375 l 1
 483.666015625 303.734375 l 1
 452.443359375 303.734375 l 1
 454.349609375 114.876953125 l 1
 440.744140625 88.255859375 l 1
 411.208984375 57.875 l 1
 384.205078125 36.77734375 l 1
 342.85546875 19.056640625 l 1
 297.201171875 12.611328125 l 1
 265.1328125 16.83203125 l 1
 254.240234375 19.439453125 l 1
 255.927734375 41.380859375 l 1
 196.322265625 47.412109375 l 1
 191.62890625 137.30078125 l 1
 214.4140625 121.265625 l 1
 239.73046875 106.076171875 l 1
 288.26171875 104.794921875 l 1
 318.642578125 106.482421875 l 1
 325.392578125 43.19140625 l 1
 387.279296875 43.3359375 l 1
 385.029296875 235.47265625 l 1
 363.931640625 237.16015625 l 1
 363.931640625 267.541015625 l 1
 354.6484375 297.919921875 l 1
 384.16796875 301.83203125 l 1
 386.4921875 448.427734375 l 1
185.4140625 305.365234375 m 1
 183.947265625 234.380859375 l 1
 126.74609375 237.6015625 l 1
 122.384765625 28.505859375 l 1
 69.220703125 28.505859375 l 1
 68.43359375 304.322265625 l 1
 185.4140625 305.365234375 l 1
EndSplineSet
Validated: 524325
EndChar

StartChar: c
Encoding: 99 99 15
Width: 594
Flags: HW
LayerCount: 2
Fore
SplineSet
383.400390625 584.48828125 m 1
 429.34765625 579.119140625 l 1
 457.556640625 564.595703125 l 1
 496.341796875 546.09765625 l 1
 494.552734375 490.455078125 l 1
 451 435.7421875 l 1
 409.005859375 459.796875 l 1
 404.44921875 543.2421875 l 1
 204.6953125 542.0234375 l 1
 246.46484375 561.71484375 l 1
 274.509765625 574.24609375 l 1
 300.56640625 582.375 l 1
 340.544921875 584.166015625 l 1
 383.400390625 584.48828125 l 1
247.310546875 462.04296875 m 1
 245.31640625 399.927734375 l 1
 227.693359375 366.51171875 l 1
 216.240234375 291.197265625 l 1
 231.80078125 211.474609375 l 1
 246.71875 182.83203125 l 1
 247.4296875 119.994140625 l 1
 407.93359375 121.78515625 l 1
 408.240234375 38.75390625 l 1
 485.37109375 38.3203125 l 1
 455.8203125 22.46484375 l 1
 386.533203125 5.759765625 l 1
 329.021484375 4.5078125 l 1
 328.42578125 39.1171875 l 1
 209.984375 39.1015625 l 1
 173.626953125 57.123046875 l 1
 149.40625 87.02734375 l 1
 111.21484375 119.84765625 l 1
 163.216796875 122.91015625 l 1
 164.486328125 376.1796875 l 1
 82.177734375 375.17578125 l 1
 89.93359375 407.99609375 l 1
 115.515625 458.462890625 l 1
 247.310546875 462.04296875 l 1
EndSplineSet
Validated: 524289
EndChar

StartChar: f
Encoding: 102 102 16
Width: 430
Flags: HW
LayerCount: 2
Fore
SplineSet
256.250976562 713.490234375 m 1
 339.221679688 712.766601562 l 1
 339.368164062 607.611328125 l 1
 308.720703125 618.465820312 l 1
 279.568359375 611.228515625 l 1
 278.336914062 693.952148438 l 1
 203.926757812 693.952148438 l 1
 230.836914062 706.252929688 l 1
 256.250976562 713.490234375 l 1
147.116210938 584.404296875 m 1
 180.485351562 584.322265625 l 1
 180.911132812 438.997070312 l 1
 144.590820312 438.921875 l 1
 88.529296875 438.921875 l 1
 84.744140625 490.288085938 l 1
 148.28125 495.353515625 l 1
 147.116210938 584.404296875 l 1
280.577148438 499.90625 m 1
 280.543945312 496.76171875 l 1
 280.388671875 496.763671875 l 1
 280.577148438 499.90625 l 1
280.543945312 496.762695312 m 1
 328.228515625 496.040039062 l 1
 325.166992188 402.411132812 l 1
 279.5703125 404.581054688 l 1
 280.543945312 496.762695312 l 1
144.303710938 348.58203125 m 1
 243.756835938 347.923828125 l 1
 241.6171875 261.12890625 l 1
 143.592773438 263.506835938 l 1
 144.303710938 348.58203125 l 1
140.352539062 188.326171875 m 1
 244.193359375 187.956054688 l 1
 246.82421875 30.529296875 l 1
 229.91015625 31.552734375 l 1
 227.795898438 117.354492188 l 1
 165.883789062 114.708007812 l 1
 163.76953125 46.14453125 l 1
 142.626953125 48.19140625 l 1
 140.352539062 188.326171875 l 1
EndSplineSet
Validated: 524293
EndChar

StartChar: k
Encoding: 107 107 17
Width: 522
Flags: HW
LayerCount: 2
Fore
SplineSet
79.48828125 695.396484375 m 1
 170.8203125 695.396484375 l 1
 170.8203125 587.37890625 l 1
 126.642578125 589.47265625 l 1
 127.0390625 517.537109375 l 1
 79.78125 518.380859375 l 1
 79.48828125 695.396484375 l 1
426.2578125 489.8046875 m 1
 393.228515625 445.123046875 l 1
 393.228515625 476.15234375 l 1
 338.92578125 474.36328125 l 1
 340.30078125 364.83203125 l 1
 293.9453125 300.134765625 l 1
 324.380859375 255.845703125 l 1
 223.591796875 258.703125 l 1
 224.57421875 205.6328125 l 1
 184.083984375 150.708984375 l 1
 183.595703125 114.88671875 l 1
 167.484375 114.88671875 l 1
 167.6640625 327.681640625 l 1
 109.53515625 328.875 l 1
 105.77734375 189.763671875 l 1
 76.400390625 190.09765625 l 1
 76.607421875 400.8046875 l 1
 182.384765625 399.013671875 l 1
 185.369140625 298.015625 l 1
 221.78515625 355.150390625 l 1
 221.189453125 328.896484375 l 1
 281.443359375 328.64453125 l 1
 280.380859375 440.6796875 l 1
 316.947265625 489.505859375 l 1
 426.2578125 489.8046875 l 1
355.25 187.685546875 m 1
 397.685546875 114.9296875 l 1
 335.671875 114.06640625 l 1
 339.251953125 31 l 1
 330.1171875 31 l 1
 252.3125 186.404296875 l 1
 355.25 187.685546875 l 1
152.63671875 70 m 1
 179.640625 70 l 1
 180.484375 31 l 1
 78 31 l 1
 78 46 l 1
 152.63671875 46 l 1
 152.63671875 70 l 1
79.48828125 695.396484375 m 1
 170.8203125 695.396484375 l 1
 170.8203125 587.37890625 l 1
 126.642578125 589.47265625 l 1
 127.0390625 517.537109375 l 1
 79.78125 518.380859375 l 1
 79.48828125 695.396484375 l 1
426.2578125 489.8046875 m 1
 393.228515625 445.123046875 l 1
 393.228515625 476.15234375 l 1
 338.92578125 474.36328125 l 1
 340.30078125 364.83203125 l 1
 293.9453125 300.134765625 l 1
 324.380859375 255.845703125 l 1
 223.591796875 258.703125 l 1
 224.57421875 205.6328125 l 1
 184.083984375 150.708984375 l 1
 183.595703125 114.88671875 l 1
 167.484375 114.88671875 l 1
 167.6640625 327.681640625 l 1
 109.53515625 328.875 l 1
 105.77734375 189.763671875 l 1
 76.400390625 190.09765625 l 1
 76.607421875 400.8046875 l 1
 182.384765625 399.013671875 l 1
 185.369140625 298.015625 l 1
 221.78515625 355.150390625 l 1
 221.189453125 328.896484375 l 1
 281.443359375 328.64453125 l 1
 280.380859375 440.6796875 l 1
 316.947265625 489.505859375 l 1
 426.2578125 489.8046875 l 1
355.25 187.685546875 m 1
 397.685546875 114.9296875 l 1
 335.671875 114.06640625 l 1
 339.251953125 29.953125 l 1
 330.1171875 29.416015625 l 1
 252.3125 186.404296875 l 1
 355.25 187.685546875 l 1
152.63671875 69.900390625 m 1
 179.640625 69.900390625 l 1
 180.484375 28.548828125 l 1
 78.685546875 31.080078125 l 1
 77.513671875 46.41015625 l 1
 152.63671875 43.73828125 l 1
 152.63671875 69.900390625 l 1
EndSplineSet
Validated: 524293
EndChar

StartChar: t
Encoding: 116 116 18
Width: 458
Flags: HW
LayerCount: 2
Fore
SplineSet
163.830078125 717.436523438 m 1
 212.775390625 717.014648438 l 1
 213.4140625 455.731445312 l 1
 256.083984375 454.887695312 l 1
 256.166015625 368.331054688 l 1
 144.646484375 366.346679688 l 1
 140.595703125 452.706054688 l 1
 149.03515625 451.016601562 l 1
 145.3828125 569.495117188 l 1
 155.353515625 623.989257812 l 1
 163.830078125 667.225585938 l 1
 163.830078125 717.436523438 l 1
364.69140625 574.038085938 m 1
 364.04296875 473.057617188 l 1
 317.4921875 474.125976562 l 1
 317.2578125 572.489257812 l 1
 364.69140625 574.038085938 l 1
112.646484375 504.725585938 m 1
 113.490234375 475.188476562 l 1
 86.552734375 474.291992188 l 1
 86.322265625 504.000976562 l 1
 112.646484375 504.725585938 l 1
142.306640625 332.696289062 m 1
 155.5 332.149414062 l 1
 154.4375 143.727539062 l 1
 147.533203125 156.356445312 l 1
 142.048828125 191.799804688 l 1
 142.306640625 332.696289062 l 1
277.15234375 158.969726562 m 1
 295.71875 142.934570312 l 1
 337.912109375 147.155273438 l 1
 340.443359375 158.124023438 l 1
 358.166015625 158.124023438 l 1
 373.708984375 64.3056640625 l 1
 334.890625 44.0517578125 l 1
 312.10546875 35.6142578125 l 1
 254.806640625 37.7607421875 l 1
 225.6953125 49.9580078125 l 1
 181.814453125 87.0888671875 l 1
 170.017578125 108.311523438 l 1
 275.46484375 106.956054688 l 1
 277.15234375 158.969726562 l 1
EndSplineSet
Validated: 524289
EndChar

StartChar: period
Encoding: 46 46 19
Width: 318
Flags: HW
LayerCount: 2
Fore
SplineSet
141.834960938 76.677734375 m 1
 223.061523438 77.9560546875 l 1
 212.091796875 61.9228515625 l 1
 173.272460938 47.5771484375 l 1
 143.737304688 43.357421875 l 1
 113.357421875 57.703125 l 1
 88.884765625 83.86328125 l 1
 66.943359375 115.931640625 l 1
 77.9140625 153.90625 l 1
 119.264648438 192.724609375 l 1
 138.673828125 207.9140625 l 1
 141.834960938 76.677734375 l 1
187.802734375 198.40234375 m 1
 212.275390625 195.02734375 l 1
 231.684570312 173.0859375 l 1
 243.499023438 142.706054688 l 1
 190.333984375 146.92578125 l 1
 187.802734375 198.40234375 l 1
EndSplineSet
Validated: 524289
EndChar

StartChar: w
Encoding: 119 119 20
Width: 786
Flags: HW
LayerCount: 2
Fore
SplineSet
71.86328125 441.14453125 m 1
 188.607421875 439.19921875 l 1
 250.490234375 176.1640625 l 1
 152.197265625 178.02734375 l 1
 132.7890625 237.099609375 l 1
 214.396484375 235.814453125 l 1
 215.240234375 293.19921875 l 1
 153.63671875 294.04296875 l 1
 152.9609375 409.56640625 l 1
 77.76953125 410.763671875 l 1
 71.86328125 441.14453125 l 1
600.931640625 440.669921875 m 1
 710.728515625 439.826171875 l 1
 696.3828125 406.0703125 l 1
 594.181640625 411.1328125 l 1
 600.931640625 440.669921875 l 1
420.74609375 439.939453125 m 1
 419.05859375 390.150390625 l 1
 327.91796875 390.150390625 l 1
 341.490234375 438.30078125 l 1
 420.74609375 439.939453125 l 1
428.220703125 358.236328125 m 1
 424.001953125 293.255859375 l 1
 398.685546875 295.7890625 l 1
 386.87109375 337.138671875 l 1
 375.900390625 305.9140625 l 1
 306.703125 309.291015625 l 1
 316.81640625 357.392578125 l 1
 428.220703125 358.236328125 l 1
579.2265625 353.232421875 m 1
 678.578125 351.68359375 l 1
 663.388671875 290.923828125 l 1
 562.349609375 295.00390625 l 1
 579.2265625 353.232421875 l 1
473.251953125 335.115234375 m 1
 487.59765625 290.388671875 l 1
 465.658203125 292.076171875 l 1
 473.251953125 335.115234375 l 1
549.91015625 239.771484375 m 1
 648.287109375 236.748046875 l 1
 626.345703125 177.67578125 l 1
 537.626953125 178.0703125 l 1
 549.91015625 239.771484375 l 1
286.201171875 239.478515625 m 1
 369.001953125 234.416015625 l 1
 346.21875 181.251953125 l 1
 267.08984375 177.94140625 l 1
 286.201171875 239.478515625 l 1
413.06640625 237.82421875 m 1
 501.04296875 237.41796875 l 1
 520.88671875 176.283203125 l 1
 474.474609375 176.283203125 l 1
 473.630859375 118.900390625 l 1
 619.73046875 120.662109375 l 1
 596.9453125 60.74609375 l 1
 461.408203125 59.783203125 l 1
 413.06640625 237.82421875 l 1
332.09765625 122.83203125 m 1
 316.0625 59.541015625 l 1
 186.759765625 59.03125 l 1
 166.505859375 119.791015625 l 1
 332.09765625 122.83203125 l 1
EndSplineSet
Validated: 524289
EndChar

StartChar: m
Encoding: 109 109 21
Width: 936
Flags: HW
LayerCount: 2
Fore
SplineSet
691.4140625 555.3046875 m 1
 735.296875 551.083984375 l 1
 779.7578125 527.658203125 l 1
 813.513671875 492.21484375 l 1
 828.703125 451.708984375 l 1
 826.888671875 370.87890625 l 1
 701.888671875 370.87890625 l 1
 701.04296875 397.884765625 l 1
 685.853515625 426.576171875 l 1
 667.2890625 442.609375 l 1
 751.650390625 445.134765625 l 1
 749.98828125 521.52734375 l 1
 676.572265625 524.904296875 l 1
 677.068359375 554.4609375 l 1
 691.4140625 555.3046875 l 1
353.24609375 555.255859375 m 1
 399.1875 554.0625 l 1
 444.330078125 544.37890625 l 1
 474.908203125 522.701171875 l 1
 260.9296875 520.400390625 l 1
 309.3671875 550.169921875 l 1
 353.24609375 555.255859375 l 1
190.23046875 542.19921875 m 0
 195.944335938 542.19921875 197.986328125 516.541015625 197.986328125 516.541015625 c 1
 84.41015625 516.224609375 l 1
 82.865234375 541.00390625 l 1
 82.865234375 541.00390625 184.516601562 542.19921875 190.23046875 542.19921875 c 0
601.6484375 540.837890625 m 1
 601.69921875 441.732421875 l 1
 578.0703125 428.228515625 l 1
 552.75390625 413.8828125 l 1
 532.3828125 395.5859375 l 1
 530.693359375 367.73828125 l 1
 452.212890625 370.26953125 l 1
 452.212890625 370.26953125 448.361328125 50.9150390625 449.205078125 47.5390625 c 0
 450.048828125 44.1630859375 390.134765625 50.0703125 390.134765625 50.0703125 c 1
 400.09765625 336.205078125 l 1
 397.56640625 380.9296875 l 1
 382.234375 413.59765625 l 1
 356.91796875 441.4453125 l 1
 527.38671875 442.947265625 l 1
 524.01171875 483.453125 l 1
 549.328125 504.55078125 l 1
 572.111328125 523.115234375 l 1
 601.6484375 540.837890625 l 1
298.4453125 444.154296875 m 0
 301.821289062 444.154296875 255.408203125 419.681640625 255.408203125 419.681640625 c 1
 220.55078125 389.88671875 l 1
 225.830078125 74.990234375 l 1
 84.640625 71.20703125 l 1
 80.80078125 142.068359375 l 1
 152.80859375 140.4296875 l 1
 147.66015625 371.73828125 l 1
 85.212890625 372.58203125 l 1
 86.0859375 439.509765625 l 1
 86.0859375 439.509765625 295.069335938 444.154296875 298.4453125 444.154296875 c 0
702.53515625 218.25 m 1
 840.931640625 216.560546875 l 1
 840.927734375 146.57421875 l 1
 828.26953125 144.04296875 l 1
 824.33203125 65.802734375 l 1
 838.6796875 63.271484375 l 1
 833.615234375 47.236328125 l 1
 749.388671875 47.166015625 l 1
 750.232421875 142.525390625 l 1
 703.29296875 144.02734375 l 1
 702.53515625 218.25 l 1
EndSplineSet
Validated: 524321
EndChar

StartChar: s
Encoding: 115 115 22
Width: 540
Flags: HW
LayerCount: 2
Fore
SplineSet
134.955078125 298.55078125 m 1
 87.7666015625 348.99609375 l 1
 79.328125 401.31640625 l 1
 82.9091796875 463.916992188 l 1
 106.537109375 509.486328125 l 1
 158.3125 553.133789062 l 1
 214.852539062 573.38671875 l 1
 285.739257812 575.91796875 l 1
 290.572265625 470.123046875 l 1
 246.690429688 472.654296875 l 1
 214.622070312 450.713867188 l 1
 215.466796875 520.142578125 l 1
 141.205078125 520.142578125 l 1
 134.955078125 298.55078125 l 1
216.93359375 258.108398438 m 1
 216.93359375 263.171875 216.57421875 394.896484375 216.57421875 394.896484375 c 1
 246.954101562 369.580078125 l 1
 288.331054688 357.390625 l 1
 289.870117188 270.247070312 l 1
 366.279296875 274.00390625 l 1
 362.461914062 326.72265625 l 1
 402.209960938 295.869140625 l 1
 438.497070312 248.612304688 l 1
 435.96484375 192.072265625 l 1
 321.272460938 191.26171875 l 1
 307.770507812 214.890625 l 1
 276.546875 232.612304688 l 1
 234.352539062 247.801757812 l 1
 216.93359375 258.108398438 l 1
364.057617188 445.697265625 m 1
 364.821289062 560.500976562 l 1
 406.171875 536.872070312 l 1
 445.418945312 510.9609375 l 1
 386.842773438 432.1953125 l 1
 364.057617188 445.697265625 l 1
229.620117188 74.1357421875 m 1
 229.817382812 41.064453125 l 1
 374.29296875 45.5849609375 l 1
 308.470703125 21.1123046875 l 1
 237.579101562 18.056640625 l 1
 134.013671875 36.0556640625 l 1
 67.9423828125 76.318359375 l 1
 229.620117188 74.1357421875 l 1
EndSplineSet
Validated: 524289
EndChar

StartChar: z
Encoding: 122 122 23
Width: 608
Flags: HW
LayerCount: 2
Fore
SplineSet
497.55859375 599.236328125 m 1
 500.935546875 548.603515625 l 1
 305.021484375 553.1796875 l 1
 301.646484375 485.66796875 l 1
 98.73828125 479.90625 l 1
 97.048828125 591.298828125 l 1
 151.15234375 596.466796875 l 1
 144.40234375 547.521484375 l 1
 225.4140625 545.833984375 l 1
 223.7265625 594.779296875 l 1
 497.55859375 599.236328125 l 1
311.74609375 466.052734375 m 1
 462.306640625 464.365234375 l 1
 401.546875 381.6640625 l 1
 382.982421875 383.3515625 l 1
 381.294921875 354.66015625 l 1
 303.658203125 234.828125 l 1
 301.970703125 381.6640625 l 1
 251.822265625 385.166015625 l 1
 311.74609375 466.052734375 l 1
287.953125 206.19140625 m 1
 245.7578125 154.71484375 l 1
 506.525390625 148.806640625 l 1
 507.390625 86.28515625 l 1
 67.140625 78.119140625 l 1
 74.416015625 119.37109375 l 1
 130.796875 202.951171875 l 1
 287.953125 206.19140625 l 1
EndSplineSet
Validated: 524289
EndChar

StartChar: y
Encoding: 121 121 24
Width: 674
Flags: HW
LayerCount: 2
Fore
SplineSet
580.5390625 560.11328125 m 1
 564.505859375 515.38671875 l 1
 487.8046875 517.306640625 l 1
 491.47265625 360.560546875 l 1
 392.78125 359.810546875 l 1
 456.513671875 560.10546875 l 1
 580.5390625 560.11328125 l 1
92.404296875 559.076171875 m 1
 227.890625 558.3359375 l 1
 238.017578125 517.828125 l 1
 202.57421875 516.984375 l 1
 200.88671875 440.19140625 l 1
 269.544921875 436.82421875 l 1
 291.12109375 358.57421875 l 1
 205.353515625 359.51171875 l 1
 198.8203125 290.171875 l 1
 198.8203125 293.547851562 132.06640625 458.654296875 132.06640625 458.654296875 c 1
 131.22265625 516.880859375 l 1
 106.75 516.880859375 l 1
 92.404296875 559.076171875 l 1
337.2578125 193.7265625 m 1
 347.384765625 173.47265625 l 1
 356.66796875 190.3515625 l 1
 356.66796875 190.3515625 452.571289062 189.99609375 459.322265625 189.99609375 c 1
 404.7421875 38.134765625 l 1
 373.71484375 -33.51171875 l 1
 376.65625 125.3984375 l 1
 256.82421875 125.3984375 l 1
 233.7421875 189.09375 l 1
 337.2578125 193.7265625 l 1
146.30078125 -67.666015625 m 1
 150.521484375 -129.26953125 l 1
 299.697265625 -127.56640625 l 1
 263.41015625 -152.8828125 l 1
 182.3046875 -161.244140625 l 1
 133.361328125 -158.712890625 l 1
 124.2890625 -147.767578125 l 1
 128.508789062 -143.547851562 146.30078125 -67.666015625 146.30078125 -67.666015625 c 1
EndSplineSet
Validated: 524289
EndChar

StartChar: p
Encoding: 112 112 25
Width: 636
Flags: HW
LayerCount: 2
Fore
SplineSet
385.908203125 520.275390625 m 1
 406.162109375 512.6796875 l 1
 409.662109375 329.04296875 l 1
 535.587890625 335.701171875 l 1
 538.962890625 312.072265625 l 1
 534.744140625 252.15625 l 1
 525.4609375 190.552734375 l 1
 501.83203125 132.326171875 l 1
 457.40625 79.4609375 l 1
 453.8671875 299.7265625 l 1
 410.828125 298.0390625 l 1
 404.921875 328.41796875 l 1
 387.3515625 391.119140625 l 1
 351.908203125 414.748046875 l 1
 326.8359375 424.072265625 l 1
 325.9921875 518.587890625 l 1
 385.908203125 520.275390625 l 1
120.83203125 510.62109375 m 1
 192.05859375 509.03515625 l 1
 191.21484375 471.904296875 l 1
 207.248046875 469.373046875 l 1
 206.404296875 456.71484375 l 1
 224.96875 465.998046875 l 1
 257.037109375 466.841796875 l 1
 256.412109375 400.853515625 l 1
 219.28125 369.62890625 l 1
 218.63671875 162.884765625 l 1
 255.767578125 140.1015625 l 1
 256.611328125 52.337890625 l 1
 213.0703125 78.44921875 l 1
 216.390625 -33.12109375 l 1
 192.76171875 -32.27734375 l 1
 190.572265625 110.046875 l 1
 100.7109375 107.701171875 l 1
 99.55859375 186.841796875 l 1
 190.296875 183.5703125 l 1
 192.9296875 251.849609375 l 1
 99.072265625 254.380859375 l 1
 100.01953125 326.64453125 l 1
 191.869140625 328.4140625 l 1
 189.880859375 396.361328125 l 1
 97.203125 400.916015625 l 1
 100.580078125 473.490234375 l 1
 122.51953125 470.958984375 l 1
 120.83203125 510.62109375 l 1
385.681640625 169.90234375 m 1
 385.24609375 33.576171875 l 1
 359.0859375 25.98046875 l 1
 323.642578125 27.66796875 l 1
 321.255859375 124.9609375 l 1
 341.154296875 129.666015625 l 1
 363.095703125 145.69921875 l 1
 385.681640625 169.90234375 l 1
101.779296875 -58.2421875 m 1
 222.455078125 -60.7734375 l 1
 220.3828125 -88.1796875 l 1
 142.287109375 -85.24609375 l 1
 143.974609375 -140.09765625 l 1
 104.3125 -142.630859375 l 1
 101.779296875 -58.2421875 l 1
EndSplineSet
Validated: 524289
EndChar

StartChar: A
Encoding: 65 65 26
Width: 876
Flags: HW
LayerCount: 2
Fore
SplineSet
336.4375 786.86328125 m 1
 335.98828125 639.587890625 l 1
 404.341796875 636.212890625 l 1
 378.306640625 556.255859375 l 1
 237.6015625 559.154296875 l 1
 319.560546875 786.01953125 l 1
 336.4375 786.86328125 l 1
576.171875 639.1171875 m 1
 608.029296875 554.443359375 l 1
 522.189453125 551.458984375 l 1
 517.421875 462.568359375 l 1
 637.802734375 461.724609375 l 1
 665.55078125 375.177734375 l 1
 510.392578125 374.638671875 l 1
 426.53125 635.119140625 l 1
 576.171875 639.1171875 l 1
237.353515625 535.119140625 m 1
 242.15625 371.27734375 l 1
 330.763671875 375.498046875 l 1
 315.57421875 332.458984375 l 1
 517.318359375 332.458984375 l 1
 523.224609375 291.109375 l 1
 700.037109375 285.37890625 l 1
 732.60546875 191.119140625 l 1
 563.84375 191.806640625 l 1
 552.873046875 217.123046875 l 1
 422.60546875 219.65625 l 1
 422.60546875 219.65625 423.44921875 280.415039062 423.44921875 284.634765625 c 0
 423.44921875 288.854492188 241.005859375 285.146484375 241.005859375 285.146484375 c 1
 240.1171875 197.498046875 l 1
 278.091796875 198.341796875 l 1
 244.578125 109.18359375 l 1
 82.51171875 106.259765625 l 1
 112.201171875 197.146484375 l 1
 112.201171875 197.146484375 155.23828125 190.395507812 154.39453125 193.771484375 c 0
 153.55078125 197.147460938 154.091796875 294.115234375 154.091796875 294.115234375 c 1
 237.353515625 535.119140625 l 1
603.8203125 90.4296875 m 1
 761.033203125 91.298828125 l 1
 761.033203125 91.298828125 786.541992188 38.95703125 784.154296875 32.9892578125 c 0
 783.059570312 30.2509765625 760.091796875 -26.798828125 760.091796875 -26.798828125 c 1
 697.420898438 -77.619140625 549.954101562 -158.579101562 549.954101562 -158.579101562 c 1
 497.576171875 -138.528320312 l 1
 274.57421875 -87.2138671875 l 1
 530.732421875 -86.6328125 l 1
 530.28125 -125.884765625 l 1
 552.698242188 -132.116210938 l 1
 606.271484375 -92.8095703125 l 1
 641.647460938 -53.083984375 l 1
 639.420898438 22.8291015625 l 1
 603.8203125 90.4296875 l 1
EndSplineSet
Validated: 524321
EndChar

StartChar: B
Encoding: 66 66 27
Width: 1000
Flags: H
LayerCount: 2
Fore
SplineSet
358.569335938 -23.978515625 m 1
 374.791015625 -64.3330078125 l 1
 331.208984375 -103.801757812 l 1
 366.661132812 -125.780273438 l 1
 420.349609375 -147.52734375 l 1
 442.813476562 -144.080078125 l 1
 442.361328125 -122.362304688 l 1
 699.068359375 -122.684570312 l 1
 475.588867188 -151.075195312 l 1
 423.098632812 -162.16796875 l 1
 423.098632812 -162.16796875 275.317382812 -117.375976562 212.512695312 -89.2587890625 c 1
 212.512695312 -89.2587890625 199.200195312 -59.8046875 198.102539062 -58.2900390625 c 0
 195.709960938 -54.98828125 200.17578125 -23.498046875 200.17578125 -23.498046875 c 1
 358.569335938 -23.978515625 l 1
271.38671875 744.357421875 m 1
 366.373046875 743.1640625 l 1
 359.541015625 272.8671875 l 1
 207.8671875 271.86328125 l 1
 201.5 350.134765625 l 1
 276.796875 352.013671875 l 1
 274.904296875 523.37109375 l 1
 208.03125 524.56640625 l 1
 204.966796875 606.248046875 l 1
 270.60546875 608.634765625 l 1
 271.38671875 744.357421875 l 1
538.513671875 743.240234375 m 1
 538.74609375 617.783203125 l 1
 505.330078125 628.5234375 l 1
 454.01171875 633.296875 l 1
 452.91796875 743.203125 l 1
 538.513671875 743.240234375 l 1
652.916015625 705.271484375 m 1
 703.267578125 681.75 l 1
 737.021484375 653.90234375 l 1
 747.9921875 615.927734375 l 1
 655.447265625 619.1953125 l 1
 652.916015625 705.271484375 l 1
713.212890625 520.884765625 m 1
 751.271484375 517.583984375 l 1
 744.111328125 485.361328125 l 1
 711.888671875 447.169921875 l 1
 713.212890625 520.884765625 l 1
533.302734375 458.98828125 m 1
 537.42578125 425.017578125 l 1
 366.01953125 425.546875 l 1
 367.212890625 444.640625 l 1
 485.56640625 443.47265625 l 1
 533.302734375 458.98828125 l 1
620.96484375 436.638671875 m 1
 698.5390625 436.638671875 l 1
 669.47265625 414.9453125 l 1
 645.60546875 407.78515625 l 1
 647.9921875 397.044921875 l 1
 725.818359375 373.6328125 l 1
 747.298828125 352.150390625 l 1
 710.302734375 350.95703125 l 1
 711.703125 177.373046875 l 1
 795.244140625 182.146484375 l 1
 773.76171875 147.537109375 l 1
 773.76171875 147.537109375 754.666015625 96.220703125 749.892578125 97.4140625 c 0
 745.119140625 98.607421875 365.65625 97.169921875 365.65625 97.169921875 c 1
 364.462890625 127.005859375 l 1
 523.205078125 128.39453125 l 1
 606.5703125 152.033203125 l 1
 636.40625 208.125 l 1
 633.013671875 281.587890625 l 1
 597.2109375 319.77734375 l 1
 477.8671875 344.83984375 l 1
 477.8671875 359.16015625 l 1
 619.517578125 358.697265625 l 1
 620.96484375 436.638671875 l 1
206.728515625 163.685546875 m 1
 273.095703125 161.033203125 l 1
 273.095703125 161.033203125 275.688476562 10.091796875 271.46875 12.623046875 c 0
 267.249023438 15.154296875 202.302734375 11.01171875 202.302734375 11.01171875 c 1
 206.728515625 163.685546875 l 1
EndSplineSet
Validated: 524321
EndChar

StartChar: N
Encoding: 78 78 28
Width: 1000
Flags: H
LayerCount: 2
Fore
SplineSet
223.72265625 -23.978515625 m 1
 346.618164062 -23.498046875 l 1
 346.618164062 -23.498046875 350.083007812 -54.98828125 348.227539062 -58.2900390625 c 0
 347.375 -59.8046875 337.046875 -89.2587890625 337.046875 -89.2587890625 c 1
 288.317382812 -117.375976562 173.655273438 -162.16796875 173.655273438 -162.16796875 c 1
 150.436523438 -153.515625 l 1
 139.2578125 -133.353515625 l 1
 108.790039062 -126.419921875 l 1
 158.709960938 -122.362304688 l 1
 158.358398438 -144.080078125 l 1
 175.7890625 -147.52734375 l 1
 217.444335938 -125.780273438 l 1
 244.951171875 -103.801757812 l 1
 211.13671875 -64.3330078125 l 1
 223.72265625 -23.978515625 l 1
762.7109375 -18.3046875 m 1
 775.65625 -58.6591796875 l 1
 740.876953125 -98.126953125 l 1
 769.16796875 -120.10546875 l 1
 812.01171875 -141.852539062 l 1
 829.938476562 -138.405273438 l 1
 829.577148438 -116.688476562 l 1
 872.05078125 -115.994140625 l 1
 841.325195312 -126.413085938 l 1
 840.5859375 -144.970703125 l 1
 814.205078125 -156.494140625 l 1
 814.205078125 -156.494140625 696.275390625 -111.701171875 646.157226562 -83.5849609375 c 1
 646.157226562 -83.5849609375 635.533203125 -54.130859375 634.657226562 -52.615234375 c 0
 632.749023438 -49.314453125 636.3125 -17.82421875 636.3125 -17.82421875 c 1
 762.7109375 -18.3046875 l 1
759.5859375 742.16796875 m 1
 754.005859375 559.109375 l 1
 732.908203125 559.953125 l 1
 728.181640625 311.90625 l 1
 653.966796875 313.189453125 l 1
 656.744140625 147.78515625 l 1
 757.16796875 152.00390625 l 1
 756.837890625 26.61328125 l 1
 732.365234375 27.45703125 l 1
 729.833984375 67.962890625 l 1
 655.572265625 65.431640625 l 1
 653.884765625 29.98828125 l 1
 614.056640625 30.0078125 l 1
 573.869140625 95.189453125 l 1
 574.26953125 345.923828125 l 1
 636.978515625 207.607421875 l 1
 624.912109375 397.24609375 l 1
 624.912109375 397.24609375 654.69921875 395.879882812 654.69921875 399.255859375 c 0
 654.69921875 402.631835938 654.59765625 561.18359375 654.59765625 561.18359375 c 1
 623.373046875 562.02734375 l 1
 622.529296875 648.103515625 l 1
 733.28515625 643.396484375 l 1
 729.064453125 723.564453125 l 1
 626.8203125 724.41015625 l 1
 623.4453125 742.130859375 l 1
 759.5859375 742.16796875 l 1
270.05859375 740.67578125 m 1
 269.21484375 724.640625 l 1
 347.341796875 722.953125 l 1
 354.09375 737.298828125 l 1
 408.8046875 641.08984375 l 1
 266.025390625 645.310546875 l 1
 265.80859375 313.2421875 l 1
 214.33203125 314.9296875 l 1
 211.830078125 739.83203125 l 1
 270.05859375 740.67578125 l 1
417.712890625 626.2734375 m 1
 491.03515625 492.33203125 l 1
 487.4296875 259.529296875 l 1
 417.38671875 390.33203125 l 1
 417.712890625 626.2734375 l 1
213.650390625 219.71484375 m 1
 343.001953125 218.02734375 l 1
 346.37890625 149.197265625 l 1
 214.5703125 150.21484375 l 1
 213.650390625 219.71484375 l 1
349.6953125 67.900390625 m 1
 349.6953125 67.900390625 348.005859375 30.7705078125 348.005859375 27.39453125 c 0
 348.005859375 24.0185546875 261.931640625 28.23828125 261.931640625 28.23828125 c 1
 267.5 67.501953125 l 1
 349.6953125 67.900390625 l 1
EndSplineSet
Validated: 524321
EndChar

StartChar: hyphen
Encoding: 45 45 29
Width: 382
Flags: HW
LayerCount: 2
Fore
SplineSet
79.666015625 359.986328125 m 1
 129.225585938 359.140625 l 1
 129.225585938 401.333984375 l 1
 310.216796875 400.76171875 l 1
 309.372070312 361.099609375 l 1
 199.58203125 359.528320312 l 1
 202.95703125 330.8359375 l 1
 79.666015625 327.91796875 l 1
 79.666015625 359.986328125 l 1
EndSplineSet
Validated: 524289
EndChar

StartChar: x
Encoding: 120 120 30
Width: 518
Flags: HW
LayerCount: 2
Fore
SplineSet
74.263671875 435.087890625 m 1
 192.953125 433.87890625 l 1
 221.06640625 386.171875 l 1
 219.423828125 282.65234375 l 1
 339.220703125 283.857421875 l 1
 343.3984375 261.181640625 l 1
 320.72265625 230.75 l 1
 379.076171875 161.314453125 l 1
 346.853515625 161.314453125 l 1
 340.5546875 36.765625 l 1
 281.208984375 125.7421875 l 1
 280.728515625 221.203125 l 1
 181.267578125 222.9921875 l 1
 195.58984375 239.701171875 l 1
 159.126953125 298.6953125 l 1
 160.716796875 403.115234375 l 1
 98.130859375 404.654296875 l 1
 74.263671875 435.087890625 l 1
332.4140625 434.5703125 m 1
 449.923828125 434.06640625 l 1
 428.3515625 404.1953125 l 1
 321.8359375 405.5078125 l 1
 332.4140625 434.5703125 l 1
104.11328125 94.806640625 m 1
 208.73046875 91.14453125 l 1
 178.64453125 35.908203125 l 1
 63.4921875 35.85546875 l 1
 104.11328125 94.806640625 l 1
417.98828125 90.9765625 m 1
 458.33984375 35.861328125 l 1
 417.390625 33.69140625 l 1
 417.98828125 90.9765625 l 1
EndSplineSet
EndChar

StartChar: v
Encoding: 118 118 31
Width: 610
Flags: HW
LayerCount: 2
Fore
SplineSet
396.451171875 482.876953125 m 1
 528.2734375 482.033203125 l 1
 513.927734375 451.654296875 l 1
 385.658203125 452.498046875 l 1
 396.451171875 482.876953125 l 1
63.947265625 383.08203125 m 1
 191.66796875 381.91796875 l 1
 215.9453125 316.330078125 l 1
 90.107421875 317.2578125 l 1
 63.947265625 383.08203125 l 1
362.052734375 381.220703125 m 1
 377.2421875 381.220703125 l 1
 377.876953125 245.490234375 l 1
 432.41015625 247.1796875 l 1
 405.28515625 175.876953125 l 1
 377.435546875 176.720703125 l 1
 378.279296875 99.927734375 l 1
 352.96875 41.166015625 l 1
 195.302734375 39.478515625 l 1
 173.759765625 102.7265625 l 1
 300.423828125 104.0703125 l 1
 297.046875 182.55078125 l 1
 362.052734375 381.220703125 l 1
116.451171875 243.060546875 m 1
 240.0234375 240.861328125 l 1
 262.80859375 176.7265625 l 1
 145.484375 174.802734375 l 1
 145.484375 174.802734375 119.827148438 242.216796875 116.451171875 243.060546875 c 1
EndSplineSet
EndChar

StartChar: j
Encoding: 106 106 32
Width: 1000
Flags: H
LayerCount: 2
Fore
SplineSet
481.255859375 592.08203125 m 1
 503.3359375 581.9375 l 1
 520.640625 554.48828125 l 1
 520.640625 533.603515625 l 1
 514.671875 509.138671875 l 1
 493.19140625 493.625 l 1
 480.66796875 490.587890625 l 1
 481.255859375 592.08203125 l 1
435.05078125 589.66015625 m 1
 433.30078125 491.125 l 1
 401.97265625 515.962890625 l 1
 397.794921875 546.36328125 l 1
 413.73828125 581.234375 l 1
 435.05078125 589.66015625 l 1
405.599609375 427.697265625 m 1
 434.240234375 424.1171875 l 1
 435.43359375 412.18359375 l 1
 491.525390625 403.830078125 l 1
 495.06640625 172.025390625 l 1
 514.16015625 175.60546875 l 1
 515.84375 4.162109375 l 1
 505.1015625 -41.189453125 l 1
 495.5546875 -48.349609375 l 1
 490.158203125 -45.599609375 l 2
 488.96484375 -40.826171875 490.2734375 114.0625 490.2734375 114.0625 c 1
 434.181640625 111.67578125 l 1
 429.408203125 231.017578125 l 1
 407.92578125 229.82421875 l 1
 405.599609375 296.419921875 l 1
 434.240234375 291.646484375 l 1
 435.43359375 346.544921875 l 1
 404.404296875 347.73828125 l 1
 405.599609375 427.697265625 l 1
327.337890625 -29.345703125 m 1
 375.076171875 -32.92578125 l 1
 373.8828125 -57.98828125 l 1
 494.41796875 -61.568359375 l 1
 455.03515625 -97.37109375 l 1
 390.58984375 -110.5 l 1
 325.03125 -109.306640625 l 1
 306.294921875 -101.5859375 l 1
 309.875 -96.8125 327.337890625 -29.345703125 327.337890625 -29.345703125 c 1
EndSplineSet
EndChar

StartChar: q
Encoding: 113 113 33
Width: 1000
Flags: H
LayerCount: 2
Fore
SplineSet
469.76171875 521.73046875 m 1
 493.388671875 511.603515625 l 1
 493.388671875 511.603515625 522.081054688 491.349609375 525.45703125 491.349609375 c 0
 528.833007812 491.349609375 541.490234375 464.345703125 541.490234375 464.345703125 c 1
 547.3984375 482.068359375 l 1
 587.904296875 482.912109375 l 1
 589.900390625 410.478515625 l 1
 640.533203125 413.85546875 l 1
 639.689453125 339.59375 l 1
 590.333984375 345.478515625 l 1
 590.333984375 345.478515625 590.333984375 274.592773438 591.177734375 270.373046875 c 0
 592.021484375 266.153320312 528.919921875 274.060546875 528.919921875 274.060546875 c 1
 528.060546875 410.224609375 l 1
 513.71484375 409.380859375 l 1
 500.2109375 421.1953125 l 1
 465.61328125 435.541015625 l 1
 469.76171875 521.73046875 l 1
310.458984375 476.841796875 m 1
 305.48828125 386.919921875 l 1
 262.76171875 386.904296875 l 1
 276.515625 424.404296875 l 1
 310.458984375 476.841796875 l 1
284.42578125 270.623046875 m 1
 362.90625 269.779296875 l 1
 363.75 251.212890625 l 1
 367.125 220.833984375 l 1
 378.939453125 198.048828125 l 1
 348.560546875 199.736328125 l 1
 352.185546875 63.392578125 l 1
 307.4609375 87.021484375 l 1
 281.033203125 131.255859375 l 1
 284.42578125 270.623046875 l 1
528.853515625 194.15625 m 1
 565.0078125 192.4609375 l 1
 561.7265625 103.833984375 l 1
 531.98046875 105.486328125 l 1
 507.130859375 105.064453125 l 1
 506.708984375 79.748046875 l 1
 494.89453125 70.466796875 l 1
 475.064453125 58.65234375 l 1
 473.873046875 146.07421875 l 1
 491.029296875 154.775390625 l 1
 515.3515625 178.123046875 l 1
 528.853515625 194.15625 l 1
591.22265625 126.896484375 m 1
 639.32421875 125.208984375 l 1
 636.51171875 -65.955078125 l 1
 671.111328125 -65.955078125 l 1
 671.111328125 -86.20703125 l 1
 637.35546875 -116.587890625 l 1
 605.2890625 -117.431640625 l 1
 604.4453125 -31.140625 l 1
 547.060546875 -30.296875 l 1
 547.90234375 -114.525390625 l 1
 528.4921875 -117.056640625 l 1
 528.83984375 56.626953125 l 1
 588.75390625 57.470703125 l 1
 591.22265625 126.896484375 l 1
EndSplineSet
EndChar
